<svg width="25" height="42" viewBox="0 0 25 42" fill="none" xmlns="http://www.w3.org/2000/svg">
<path d="M20.6049 17.6129C20.5474 18.761 19.4705 19.531 18.4307 19.1206C17.12 18.6035 15.8188 18.0568 14.514 17.5223C13.8113 17.2347 13.1109 16.9383 12.4034 16.6643C12.2678 16.616 12.1204 16.616 11.9848 16.6643C10.0193 17.4579 8.05855 18.2626 6.0954 19.0636C5.11443 19.464 4.18862 19.0636 3.88641 18.1026C3.82196 17.8907 3.79989 17.6674 3.82154 17.4463C3.84318 17.2253 3.9081 17.0111 4.01233 16.8168C6.08221 12.5821 8.15049 8.34536 10.2172 4.10652C10.3875 3.75687 10.5601 3.40845 10.7316 3.06004C11.0326 2.4438 11.5207 2.10779 12.1899 2.10779C12.8591 2.10779 13.3448 2.45 13.6446 3.06624C15.0141 5.87174 16.382 8.67642 17.7484 11.4803C18.6094 13.2447 19.4753 15.0078 20.3279 16.7772C20.4383 17.049 20.5308 17.3282 20.6049 17.6129Z" fill="#F35B04"/>
<path d="M4.28374 24.3871C4.3413 23.239 5.41821 22.469 6.45795 22.8794C7.76871 23.3964 9.06988 23.9432 10.3746 24.4777C11.0774 24.7653 11.7778 25.0616 12.4853 25.3357C12.6209 25.384 12.7682 25.384 12.9038 25.3357C14.8694 24.5421 16.8301 23.7374 18.7933 22.9364C19.7742 22.536 20.7 22.9364 21.0023 23.8974C21.0667 24.1093 21.0888 24.3326 21.0671 24.5536C21.0455 24.7747 20.9806 24.9889 20.8763 25.1832C18.8065 29.4179 16.7382 33.6546 14.6715 37.8935C14.5012 38.2431 14.3285 38.5915 14.157 38.94C13.856 39.5562 13.3679 39.8922 12.6988 39.8922C12.0296 39.8922 11.5439 39.55 11.2441 38.9338C9.87457 36.1283 8.50664 33.3236 7.14031 30.5197C6.27926 28.7553 5.41342 26.9922 4.56076 25.2228C4.4504 24.951 4.35784 24.6718 4.28374 24.3871Z" fill="white"/>
</svg>
