<svg width="375" height="812" viewBox="0 0 375 812" fill="none" xmlns="http://www.w3.org/2000/svg">
<g clip-path="url(#clip0_478_1829)">
<rect width="375" height="812" fill="white"/>
<rect y="497" width="375" height="240" fill="url(#paint0_linear_478_1829)"/>
<circle cx="75.5" cy="471.5" r="9.5" fill="#F35B04"/>
<path d="M16.612 521L12.94 512.6H14.632L17.908 520.196H16.936L20.248 512.6H21.808L18.148 521H16.612ZM24.9499 521.084C24.2939 521.084 23.7099 520.944 23.1979 520.664C22.6859 520.376 22.2819 519.984 21.9859 519.488C21.6899 518.992 21.5419 518.428 21.5419 517.796C21.5419 517.156 21.6899 516.592 21.9859 516.104C22.2819 515.608 22.6859 515.22 23.1979 514.94C23.7099 514.66 24.2939 514.52 24.9499 514.52C25.6139 514.52 26.2019 514.66 26.7139 514.94C27.2339 515.22 27.6379 515.604 27.9259 516.092C28.2219 516.58 28.3699 517.148 28.3699 517.796C28.3699 518.428 28.2219 518.992 27.9259 519.488C27.6379 519.984 27.2339 520.376 26.7139 520.664C26.2019 520.944 25.6139 521.084 24.9499 521.084ZM24.9499 519.8C25.3179 519.8 25.6459 519.72 25.9339 519.56C26.2219 519.4 26.4459 519.168 26.6059 518.864C26.7739 518.56 26.8579 518.204 26.8579 517.796C26.8579 517.38 26.7739 517.024 26.6059 516.728C26.4459 516.424 26.2219 516.192 25.9339 516.032C25.6459 515.872 25.3219 515.792 24.9619 515.792C24.5939 515.792 24.2659 515.872 23.9779 516.032C23.6979 516.192 23.4739 516.424 23.3059 516.728C23.1379 517.024 23.0539 517.38 23.0539 517.796C23.0539 518.204 23.1379 518.56 23.3059 518.864C23.4739 519.168 23.6979 519.4 23.9779 519.56C24.2659 519.72 24.5899 519.8 24.9499 519.8ZM29.8043 521V514.592H31.3043V521H29.8043ZM30.5603 513.536C30.2803 513.536 30.0483 513.448 29.8643 513.272C29.6883 513.096 29.6003 512.884 29.6003 512.636C29.6003 512.38 29.6883 512.168 29.8643 512C30.0483 511.824 30.2803 511.736 30.5603 511.736C30.8403 511.736 31.0683 511.82 31.2443 511.988C31.4283 512.148 31.5203 512.352 31.5203 512.6C31.5203 512.864 31.4323 513.088 31.2563 513.272C31.0803 513.448 30.8483 513.536 30.5603 513.536ZM33.2731 521V514.592H34.7011V516.356L34.5331 515.84C34.7251 515.408 35.0251 515.08 35.4331 514.856C35.8491 514.632 36.3651 514.52 36.9811 514.52V515.948C36.9171 515.932 36.8571 515.924 36.8011 515.924C36.7451 515.916 36.6891 515.912 36.6331 515.912C36.0651 515.912 35.6131 516.08 35.2771 516.416C34.9411 516.744 34.7731 517.236 34.7731 517.892V521H33.2731ZM43.6085 521.084C43.0725 521.084 42.5565 521.016 42.0605 520.88C41.5725 520.736 41.1845 520.564 40.8965 520.364L41.4725 519.224C41.7605 519.408 42.1045 519.56 42.5045 519.68C42.9045 519.8 43.3045 519.86 43.7045 519.86C44.1765 519.86 44.5165 519.796 44.7245 519.668C44.9405 519.54 45.0485 519.368 45.0485 519.152C45.0485 518.976 44.9765 518.844 44.8325 518.756C44.6885 518.66 44.5005 518.588 44.2685 518.54C44.0365 518.492 43.7765 518.448 43.4885 518.408C43.2085 518.368 42.9245 518.316 42.6365 518.252C42.3565 518.18 42.1005 518.08 41.8685 517.952C41.6365 517.816 41.4485 517.636 41.3045 517.412C41.1605 517.188 41.0885 516.892 41.0885 516.524C41.0885 516.116 41.2045 515.764 41.4365 515.468C41.6685 515.164 41.9925 514.932 42.4085 514.772C42.8325 514.604 43.3325 514.52 43.9085 514.52C44.3405 514.52 44.7765 514.568 45.2165 514.664C45.6565 514.76 46.0205 514.896 46.3085 515.072L45.7325 516.212C45.4285 516.028 45.1205 515.904 44.8085 515.84C44.5045 515.768 44.2005 515.732 43.8965 515.732C43.4405 515.732 43.1005 515.8 42.8765 515.936C42.6605 516.072 42.5525 516.244 42.5525 516.452C42.5525 516.644 42.6245 516.788 42.7685 516.884C42.9125 516.98 43.1005 517.056 43.3325 517.112C43.5645 517.168 43.8205 517.216 44.1005 517.256C44.3885 517.288 44.6725 517.34 44.9525 517.412C45.2325 517.484 45.4885 517.584 45.7205 517.712C45.9605 517.832 46.1525 518.004 46.2965 518.228C46.4405 518.452 46.5125 518.744 46.5125 519.104C46.5125 519.504 46.3925 519.852 46.1525 520.148C45.9205 520.444 45.5885 520.676 45.1565 520.844C44.7245 521.004 44.2085 521.084 43.6085 521.084ZM50.8163 521.084C50.1043 521.084 49.4803 520.944 48.9443 520.664C48.4163 520.376 48.0043 519.984 47.7083 519.488C47.4203 518.992 47.2763 518.428 47.2763 517.796C47.2763 517.156 47.4163 516.592 47.6963 516.104C47.9843 515.608 48.3763 515.22 48.8723 514.94C49.3763 514.66 49.9483 514.52 50.5883 514.52C51.2123 514.52 51.7683 514.656 52.2563 514.928C52.7443 515.2 53.1283 515.584 53.4083 516.08C53.6883 516.576 53.8283 517.16 53.8283 517.832C53.8283 517.896 53.8243 517.968 53.8163 518.048C53.8163 518.128 53.8123 518.204 53.8043 518.276H48.4643V517.28H53.0123L52.4243 517.592C52.4323 517.224 52.3563 516.9 52.1963 516.62C52.0363 516.34 51.8163 516.12 51.5363 515.96C51.2643 515.8 50.9483 515.72 50.5883 515.72C50.2203 515.72 49.8963 515.8 49.6163 515.96C49.3443 516.12 49.1283 516.344 48.9683 516.632C48.8163 516.912 48.7403 517.244 48.7403 517.628V517.868C48.7403 518.252 48.8283 518.592 49.0043 518.888C49.1803 519.184 49.4283 519.412 49.7483 519.572C50.0683 519.732 50.4363 519.812 50.8523 519.812C51.2123 519.812 51.5363 519.756 51.8243 519.644C52.1123 519.532 52.3683 519.356 52.5923 519.116L53.3963 520.04C53.1083 520.376 52.7443 520.636 52.3043 520.82C51.8723 520.996 51.3763 521.084 50.8163 521.084ZM57.9812 521.084C57.4372 521.084 56.9572 520.984 56.5412 520.784C56.1252 520.576 55.8012 520.264 55.5692 519.848C55.3372 519.424 55.2212 518.892 55.2212 518.252V514.592H56.7212V518.048C56.7212 518.624 56.8492 519.056 57.1052 519.344C57.3692 519.624 57.7412 519.764 58.2212 519.764C58.5732 519.764 58.8772 519.692 59.1332 519.548C59.3972 519.404 59.6012 519.188 59.7452 518.9C59.8972 518.612 59.9732 518.256 59.9732 517.832V514.592H61.4732V521H60.0452V519.272L60.2972 519.8C60.0812 520.216 59.7652 520.536 59.3492 520.76C58.9332 520.976 58.4772 521.084 57.9812 521.084ZM63.4371 521V512.096H64.9371V521H63.4371ZM69.9179 521.084C69.2059 521.084 68.5819 520.944 68.0459 520.664C67.5179 520.376 67.1059 519.984 66.8099 519.488C66.5219 518.992 66.3779 518.428 66.3779 517.796C66.3779 517.156 66.5179 516.592 66.7979 516.104C67.0859 515.608 67.4779 515.22 67.9739 514.94C68.4779 514.66 69.0499 514.52 69.6899 514.52C70.3139 514.52 70.8699 514.656 71.3579 514.928C71.8459 515.2 72.2299 515.584 72.5099 516.08C72.7899 516.576 72.9299 517.16 72.9299 517.832C72.9299 517.896 72.9259 517.968 72.9179 518.048C72.9179 518.128 72.9139 518.204 72.9059 518.276H67.5659V517.28H72.1139L71.5259 517.592C71.5339 517.224 71.4579 516.9 71.2979 516.62C71.1379 516.34 70.9179 516.12 70.6379 515.96C70.3659 515.8 70.0499 515.72 69.6899 515.72C69.3219 515.72 68.9979 515.8 68.7179 515.96C68.4459 516.12 68.2299 516.344 68.0699 516.632C67.9179 516.912 67.8419 517.244 67.8419 517.628V517.868C67.8419 518.252 67.9299 518.592 68.1059 518.888C68.2819 519.184 68.5299 519.412 68.8499 519.572C69.1699 519.732 69.5379 519.812 69.9539 519.812C70.3139 519.812 70.6379 519.756 70.9259 519.644C71.2139 519.532 71.4699 519.356 71.6939 519.116L72.4979 520.04C72.2099 520.376 71.8459 520.636 71.4059 520.82C70.9739 520.996 70.4779 521.084 69.9179 521.084ZM82.4587 514.52C82.9707 514.52 83.4227 514.62 83.8147 514.82C84.2147 515.02 84.5267 515.328 84.7507 515.744C84.9747 516.152 85.0867 516.68 85.0867 517.328V521H83.5867V517.52C83.5867 516.952 83.4627 516.528 83.2147 516.248C82.9667 515.968 82.6107 515.828 82.1467 515.828C81.8187 515.828 81.5267 515.9 81.2707 516.044C81.0227 516.188 80.8267 516.4 80.6827 516.68C80.5467 516.96 80.4787 517.316 80.4787 517.748V521H78.9787V517.52C78.9787 516.952 78.8547 516.528 78.6067 516.248C78.3587 515.968 78.0027 515.828 77.5387 515.828C77.2107 515.828 76.9187 515.9 76.6627 516.044C76.4147 516.188 76.2187 516.4 76.0747 516.68C75.9387 516.96 75.8707 517.316 75.8707 517.748V521H74.3707V514.592H75.7987V516.296L75.5467 515.792C75.7627 515.376 76.0747 515.06 76.4827 514.844C76.8987 514.628 77.3707 514.52 77.8987 514.52C78.4987 514.52 79.0187 514.668 79.4587 514.964C79.9067 515.26 80.2027 515.708 80.3467 516.308L79.7587 516.104C79.9667 515.624 80.3107 515.24 80.7907 514.952C81.2707 514.664 81.8267 514.52 82.4587 514.52ZM90.0273 521.084C89.3153 521.084 88.6913 520.944 88.1553 520.664C87.6273 520.376 87.2153 519.984 86.9193 519.488C86.6313 518.992 86.4873 518.428 86.4873 517.796C86.4873 517.156 86.6273 516.592 86.9073 516.104C87.1953 515.608 87.5873 515.22 88.0833 514.94C88.5873 514.66 89.1593 514.52 89.7993 514.52C90.4233 514.52 90.9793 514.656 91.4673 514.928C91.9553 515.2 92.3393 515.584 92.6193 516.08C92.8993 516.576 93.0393 517.16 93.0393 517.832C93.0393 517.896 93.0353 517.968 93.0273 518.048C93.0273 518.128 93.0233 518.204 93.0153 518.276H87.6753V517.28H92.2233L91.6353 517.592C91.6433 517.224 91.5673 516.9 91.4073 516.62C91.2473 516.34 91.0273 516.12 90.7473 515.96C90.4753 515.8 90.1593 515.72 89.7993 515.72C89.4313 515.72 89.1073 515.8 88.8273 515.96C88.5553 516.12 88.3393 516.344 88.1793 516.632C88.0273 516.912 87.9513 517.244 87.9513 517.628V517.868C87.9513 518.252 88.0393 518.592 88.2153 518.888C88.3913 519.184 88.6393 519.412 88.9593 519.572C89.2793 519.732 89.6473 519.812 90.0633 519.812C90.4233 519.812 90.7473 519.756 91.0353 519.644C91.3233 519.532 91.5793 519.356 91.8033 519.116L92.6073 520.04C92.3193 520.376 91.9553 520.636 91.5153 520.82C91.0833 520.996 90.5873 521.084 90.0273 521.084ZM98.1161 514.52C98.6281 514.52 99.0841 514.62 99.4841 514.82C99.8921 515.02 100.212 515.328 100.444 515.744C100.676 516.152 100.792 516.68 100.792 517.328V521H99.2921V517.52C99.2921 516.952 99.1561 516.528 98.8841 516.248C98.6201 515.968 98.2481 515.828 97.7681 515.828C97.4161 515.828 97.1041 515.9 96.8321 516.044C96.5601 516.188 96.3481 516.404 96.1961 516.692C96.0521 516.972 95.9801 517.328 95.9801 517.76V521H94.4801V514.592H95.9081V516.32L95.6561 515.792C95.8801 515.384 96.2041 515.072 96.6281 514.856C97.0601 514.632 97.5561 514.52 98.1161 514.52ZM105.107 521.084C104.403 521.084 103.859 520.904 103.475 520.544C103.091 520.176 102.899 519.636 102.899 518.924V513.176H104.399V518.888C104.399 519.192 104.475 519.428 104.627 519.596C104.787 519.764 105.007 519.848 105.287 519.848C105.623 519.848 105.903 519.76 106.127 519.584L106.547 520.652C106.371 520.796 106.155 520.904 105.899 520.976C105.643 521.048 105.379 521.084 105.107 521.084ZM101.843 515.84V514.64H106.115V515.84H101.843ZM111.577 516.512C111.305 516.512 111.073 516.42 110.881 516.236C110.689 516.044 110.593 515.804 110.593 515.516C110.593 515.212 110.689 514.972 110.881 514.796C111.073 514.612 111.305 514.52 111.577 514.52C111.849 514.52 112.081 514.612 112.273 514.796C112.465 514.972 112.561 515.212 112.561 515.516C112.561 515.804 112.465 516.044 112.273 516.236C112.081 516.42 111.849 516.512 111.577 516.512ZM111.577 521.084C111.305 521.084 111.073 520.992 110.881 520.808C110.689 520.616 110.593 520.376 110.593 520.088C110.593 519.784 110.689 519.544 110.881 519.368C111.073 519.184 111.305 519.092 111.577 519.092C111.849 519.092 112.081 519.184 112.273 519.368C112.465 519.544 112.561 519.784 112.561 520.088C112.561 520.376 112.465 520.616 112.273 520.808C112.081 520.992 111.849 521.084 111.577 521.084Z" fill="white"/>
<ellipse cx="188" cy="406" rx="443" ry="466" fill="url(#paint1_radial_478_1829)"/>
</g>
<defs>
<linearGradient id="paint0_linear_478_1829" x1="187.5" y1="497" x2="187.5" y2="737" gradientUnits="userSpaceOnUse">
<stop stop-color="#7678ED" stop-opacity="0"/>
<stop offset="1" stop-color="#413794"/>
</linearGradient>
<radialGradient id="paint1_radial_478_1829" cx="0" cy="0" r="1" gradientUnits="userSpaceOnUse" gradientTransform="translate(188 406) rotate(90) scale(466 443)">
<stop offset="0.056306" stop-color="#7678ED" stop-opacity="0.04"/>
<stop offset="0.189561" stop-color="#7678ED"/>
<stop offset="0.688224" stop-color="#413794"/>
<stop offset="0.815858" stop-color="#413794"/>
<stop offset="0.933238" stop-color="#28225A"/>
</radialGradient>
<clipPath id="clip0_478_1829">
<rect width="375" height="812" fill="white"/>
</clipPath>
</defs>
</svg>
