<svg width="86" height="111" viewBox="0 0 86 111" fill="none" xmlns="http://www.w3.org/2000/svg">
<g filter="url(#filter0_d_465_2630)">
<path d="M43.4487 30.2966C38.6361 30.2966 34.065 30.8009 29.9443 31.7114L41.1793 11.1073C41.9853 9.63089 44.0004 9.63089 44.8086 11.1073L55.9249 31.4947C52.078 30.7233 47.8646 30.2989 43.4487 30.2989V30.2966Z" fill="#7678ED"/>
<path d="M75.9957 52.7651C75.9957 53.0709 75.9828 53.3744 75.9548 53.6756C75.944 53.5798 75.9332 53.4862 75.9181 53.3927C75.9031 53.2968 75.8901 53.2033 75.8729 53.1097L75.819 52.829C75.7802 52.6419 75.7349 52.4548 75.6811 52.2699C75.6272 52.0851 75.569 51.9025 75.5065 51.7177C75.5065 51.7177 75.5043 51.7177 75.5043 51.7154C75.4397 51.5329 75.3686 51.3526 75.2888 51.17C75.2134 50.9875 75.1293 50.8095 75.0367 50.6292C74.9914 50.5402 74.9462 50.4489 74.8966 50.3622C74.8793 50.3234 74.8578 50.2869 74.8362 50.2481C74.8104 50.2047 74.7845 50.1568 74.7587 50.1135C74.5906 49.8191 74.403 49.5293 74.2026 49.2417C74.1617 49.1847 74.1186 49.1231 74.0755 49.066C74.0043 48.9702 73.9354 48.8766 73.8621 48.7831C73.7824 48.6781 73.6983 48.5731 73.6099 48.4681C73.5345 48.3746 73.4591 48.2833 73.375 48.192C73.1789 47.9661 72.972 47.7425 72.7565 47.5188C72.694 47.4549 72.6293 47.391 72.5647 47.3249C72.5496 47.3135 72.5367 47.2998 72.5237 47.2838C72.3643 47.1286 72.2005 46.9757 72.0324 46.8228C71.9871 46.784 71.9418 46.743 71.8966 46.7019C71.8255 46.6403 71.7586 46.5787 71.6854 46.5193C71.4375 46.3071 71.1832 46.0971 70.9181 45.8941C70.8341 45.8279 70.7479 45.7617 70.6638 45.7001C70.5496 45.6111 70.4354 45.5289 70.3168 45.4445C70.1121 45.2962 69.9009 45.1501 69.6854 45.0064C69.5776 44.9356 69.4699 44.8626 69.3599 44.7919C69.25 44.7211 69.138 44.6481 69.0259 44.5796C68.8018 44.4359 68.5733 44.2989 68.3384 44.1643C67.9871 43.9566 67.625 43.7558 67.2565 43.5619C67.1315 43.4957 67.0065 43.4295 66.8815 43.3656C66.7543 43.3017 66.6293 43.2355 66.4979 43.1716C66.2586 43.0507 66.013 42.932 65.763 42.8179C65.6142 42.7495 65.4699 42.681 65.3168 42.6148C65.1832 42.5532 65.0496 42.4962 64.9117 42.4368C64.6336 42.3159 64.3492 42.195 64.0604 42.0786C63.9268 42.0261 63.7953 41.9713 63.6595 41.9188C63.5173 41.8618 63.375 41.8047 63.2306 41.7545C62.9418 41.645 62.6509 41.5377 62.3535 41.4328C62.2543 41.3963 62.1552 41.3643 62.0561 41.3278C61.8556 41.2593 61.6574 41.1909 61.4548 41.1247C61.2392 41.054 61.0237 40.9832 60.8039 40.9148C60.6768 40.8737 60.5496 40.8349 60.4203 40.7984C60.1466 40.7139 59.8707 40.6295 59.5927 40.5542C59.2759 40.4629 58.9548 40.3739 58.6315 40.2895C58.4699 40.2461 58.3061 40.2051 58.1423 40.1617C57.8168 40.0795 57.4871 39.9997 57.153 39.9221C56.7048 39.8171 56.2522 39.719 55.791 39.6254C55.5776 39.5821 55.3621 39.5364 55.1444 39.4954C54.8729 39.4406 54.597 39.3904 54.3211 39.3402C54.138 39.3082 53.9548 39.274 53.7673 39.2443C53.291 39.1645 52.8104 39.0869 52.3233 39.0184C52.1509 38.9933 51.9806 38.9682 51.8061 38.9477C50.75 38.8016 49.666 38.6852 48.5711 38.594C48.3104 38.5711 48.0496 38.5506 47.7867 38.5324C47.7091 38.5232 47.6315 38.5187 47.5517 38.5164C47.2802 38.4981 47.0129 38.4799 46.7392 38.4662C45.5086 38.3977 44.2586 38.3612 42.9914 38.3612C41.7242 38.3612 40.4742 38.3977 39.2435 38.4662C38.9806 38.4799 38.7177 38.4958 38.4548 38.5141C38.3621 38.5187 38.2694 38.5278 38.1789 38.5324C37.9418 38.5483 37.7048 38.5689 37.4698 38.5871C36.903 38.635 36.3384 38.6852 35.7802 38.7491C35.597 38.7674 35.4181 38.7879 35.2392 38.8108C35.1401 38.8222 35.041 38.8336 34.9418 38.8473C34.778 38.8655 34.6164 38.8883 34.4548 38.9112C34.3815 38.9203 34.306 38.9271 34.2328 38.9386C34.028 38.9659 33.8233 38.9933 33.6207 39.023C33.3858 39.0549 33.1487 39.0914 32.916 39.1302C32.681 39.1667 32.4504 39.201 32.2177 39.2443C32 39.2808 31.7802 39.3196 31.5625 39.3607L31.5086 39.3698C31.2866 39.4109 31.0625 39.452 30.8427 39.4976C30.6164 39.541 30.3923 39.5866 30.166 39.6323C29.9418 39.6802 29.7177 39.7258 29.4979 39.776C29.2737 39.824 29.0517 39.8719 28.8341 39.9244C28.5862 39.9814 28.3405 40.0408 28.097 40.1001C27.8707 40.1571 27.6466 40.2165 27.4224 40.2735C27.2306 40.3237 27.0366 40.3762 26.847 40.4287C26.6961 40.4698 26.5453 40.5108 26.3944 40.5565C26.278 40.5884 26.1638 40.6227 26.0474 40.6546C26.0065 40.666 25.9634 40.6797 25.9224 40.6934C25.7629 40.7368 25.6078 40.7847 25.4547 40.8349C25.3642 40.8623 25.2759 40.8896 25.1875 40.917C25.1789 40.9193 25.1746 40.9193 25.1703 40.9216C24.8039 41.038 24.4418 41.1566 24.0841 41.2776C23.9332 41.3301 23.7845 41.3826 23.6358 41.435C23.4871 41.4875 23.3427 41.54 23.1961 41.5948C21.9698 42.0443 20.8104 42.535 19.7241 43.0644C19.5582 43.1443 19.3944 43.2264 19.2328 43.3086C19.0776 43.3861 18.9203 43.4683 18.7672 43.5482C18.6336 43.6166 18.5022 43.6897 18.3685 43.7627C18.2888 43.806 18.2069 43.8517 18.1272 43.8973C18.0259 43.9521 17.9246 44.0114 17.8233 44.0707C17.6983 44.1415 17.5733 44.2145 17.4504 44.2875C17.1228 44.4815 16.8039 44.6823 16.4957 44.8854C16.3621 44.9744 16.2306 45.0611 16.097 45.1524C15.8233 45.3372 15.5603 45.5267 15.306 45.7206C15.1789 45.8165 15.0539 45.9146 14.9289 46.0127C14.806 46.1086 14.6832 46.209 14.5647 46.3071C14.3254 46.5056 14.097 46.7042 13.8728 46.9073C13.7629 47.0099 13.6552 47.1104 13.5474 47.2153C13.4397 47.318 13.3341 47.423 13.2328 47.5257C13.1315 47.6284 13.0323 47.7333 12.9332 47.8406C12.7371 48.0505 12.5496 48.265 12.3728 48.4796C12.1099 48.799 11.8707 49.1254 11.6487 49.4517C11.6466 49.4562 11.6401 49.4608 11.6379 49.4654C11.6379 49.4654 11.6379 49.4676 11.6358 49.4676C11.5647 49.5726 11.4978 49.6776 11.4332 49.7826C11.3685 49.8875 11.3039 49.9948 11.2414 50.0998C11.1207 50.312 11.0065 50.5242 10.9009 50.7387C10.8599 50.8232 10.8168 50.9099 10.778 50.9989C10.7392 51.0833 10.7004 51.1723 10.6638 51.2613C10.556 51.5237 10.4612 51.7839 10.375 52.0531C10.3491 52.1444 10.3233 52.2334 10.2974 52.3201C10.2478 52.4981 10.2047 52.6784 10.1681 52.861C10.1509 52.95 10.1315 53.0412 10.1164 53.1302C10.0862 53.3128 10.0582 53.4931 10.0409 53.6756V53.662C10.0129 53.3676 10 53.0663 10 52.7651C10 51.1883 10.3772 49.6593 11.0884 48.2011C13.3987 43.4386 19.2414 39.4543 27.0022 37.1152C28.0625 36.7958 29.1552 36.5082 30.2802 36.2526C34.194 35.365 38.4914 34.8743 43 34.8743C47.5086 34.8743 51.8082 35.365 55.722 36.2526C56.847 36.5059 57.9397 36.7958 58.9957 37.113C67.3362 39.6231 73.4569 44.0365 75.3707 49.2691C75.7845 50.3987 76 51.5671 76 52.7628L75.9957 52.7651Z" fill="#3D348B"/>
<path d="M75.9523 53.6755V53.6869C75.7799 55.5285 75.0924 57.297 73.9696 58.9515C71.1614 65.5989 58.5622 70.6124 43.4458 70.6124C32.5859 70.6124 23.0256 68.0247 17.4609 64.1019C13.1269 61.238 10.407 57.6302 10.0342 53.6869V53.6755C10.0342 53.6755 10.0342 53.6664 10.0363 53.6618V53.6755C10.0536 53.493 10.0816 53.3127 10.1118 53.1301C10.1269 53.0388 10.1462 52.9476 10.1635 52.8608C10.2001 52.6783 10.2432 52.5003 10.2928 52.32C10.3187 52.231 10.3445 52.1443 10.3704 52.053C10.4566 51.786 10.5536 51.5236 10.6592 51.2612C10.6958 51.1722 10.7346 51.0855 10.7734 50.9987C10.8122 50.9097 10.8531 50.8253 10.8962 50.7386C11.004 50.5241 11.1182 50.3119 11.2368 50.0996C11.2993 49.9947 11.3639 49.8874 11.4286 49.7824C11.4932 49.6775 11.5622 49.5725 11.6312 49.4675C11.6333 49.4675 11.6333 49.4652 11.6333 49.4652C11.6355 49.4607 11.6419 49.4561 11.6441 49.4516C11.8661 49.1229 12.1053 48.7989 12.3682 48.4794C12.545 48.2649 12.7325 48.0504 12.9286 47.8405C13.0277 47.7332 13.1269 47.6282 13.2281 47.5256C13.3294 47.4206 13.4372 47.3156 13.5428 47.2152C13.6506 47.1102 13.7583 47.0075 13.8682 46.9071C14.0924 46.704 14.3208 46.5055 14.56 46.307C14.6807 46.2088 14.8014 46.1084 14.9243 46.0126C15.0493 45.9145 15.1743 45.8163 15.3014 45.7205C15.5557 45.5265 15.8187 45.3371 16.0924 45.1523C16.226 45.061 16.3575 44.972 16.4911 44.8853C16.8014 44.6822 17.1182 44.4791 17.4458 44.2874C17.5687 44.2121 17.6937 44.1414 17.8187 44.0706C17.92 44.009 18.0213 43.952 18.1225 43.8972C18.2023 43.8493 18.2842 43.8059 18.3639 43.7625C18.4975 43.6872 18.629 43.6165 18.7626 43.548C18.9156 43.4682 19.073 43.386 19.2281 43.3084C19.3898 43.2263 19.5536 43.1441 19.7195 43.0643C20.8057 42.5348 21.9652 42.0442 23.1915 41.5947C23.3381 41.5399 23.4825 41.4874 23.6312 41.4349C23.7799 41.3824 23.9286 41.33 24.0794 41.2775C24.435 41.1565 24.7971 41.0379 25.1657 40.9215C25.17 40.9192 25.1764 40.9192 25.1829 40.9169C25.2713 40.8895 25.3596 40.8621 25.4501 40.8348C25.6032 40.7846 25.7605 40.7389 25.9178 40.6933C26.073 40.6454 26.2303 40.5997 26.3898 40.5564C26.5407 40.513 26.6915 40.4719 26.8424 40.4286C27.032 40.3761 27.226 40.3236 27.4178 40.2734C27.6419 40.2163 27.8661 40.157 28.0924 40.1C28.3338 40.0383 28.5816 39.9813 28.8294 39.9242C29.0471 39.8718 29.2691 39.8216 29.4932 39.7759C29.7152 39.7257 29.9394 39.6801 30.1613 39.6322C30.3876 39.5842 30.6118 39.5409 30.8381 39.4975C31.0601 39.4542 31.2842 39.4131 31.504 39.3697L31.5579 39.3606C31.7756 39.3195 31.9954 39.2807 32.2131 39.2442C32.4437 39.2031 32.6764 39.1666 32.9113 39.1301C33.1463 39.0913 33.3833 39.0548 33.6161 39.0229C33.8187 38.9932 34.0213 38.9658 34.2282 38.9384C34.3014 38.927 34.3769 38.9202 34.4501 38.911C34.6118 38.8882 34.7734 38.8677 34.9372 38.8471C35.0363 38.8335 35.1355 38.822 35.2346 38.8106C35.4135 38.7878 35.5945 38.7696 35.7756 38.749C36.3316 38.6851 36.8984 38.6326 37.4652 38.587C37.7001 38.5687 37.9372 38.5482 38.1743 38.5322C38.2648 38.5277 38.3575 38.5185 38.4501 38.514C38.7131 38.498 38.976 38.482 39.2389 38.4661C40.4695 38.3976 41.7195 38.3611 42.9868 38.3611C44.254 38.3611 45.504 38.3976 46.7346 38.4661C47.0062 38.4797 47.2756 38.4957 47.5471 38.5163C47.6247 38.5185 47.7023 38.5254 47.782 38.5322C48.045 38.5482 48.3057 38.571 48.5665 38.5938C49.6614 38.6851 50.7454 38.8015 51.8014 38.9476C51.976 38.9704 52.1484 38.9955 52.3187 39.0183C52.8058 39.0868 53.2864 39.1643 53.7626 39.2442C53.9501 39.2739 54.1355 39.3081 54.3165 39.3401C54.5924 39.3903 54.8683 39.4382 55.1398 39.4952C55.3553 39.5363 55.5708 39.5797 55.7864 39.6253C56.2476 39.7189 56.7001 39.8193 57.1484 39.922C57.4825 39.9996 57.8122 40.0794 58.1376 40.1616C58.3014 40.2026 58.4652 40.2437 58.6269 40.2894C58.9501 40.3738 59.2691 40.4628 59.5881 40.5541C59.8661 40.6317 60.142 40.7138 60.4157 40.7982C60.5428 40.8348 60.67 40.8736 60.7993 40.9146C61.017 40.9831 61.2346 41.0515 61.4502 41.1246C61.6527 41.1907 61.851 41.2592 62.0514 41.3277C62.1506 41.3642 62.2497 41.3961 62.3489 41.4326C62.6463 41.5376 62.9372 41.6449 63.226 41.7544L63.6549 41.9187C63.7907 41.9712 63.9221 42.026 64.0558 42.0784C64.3446 42.1948 64.629 42.3158 64.907 42.4367C65.045 42.4983 65.1808 42.5554 65.3122 42.6147C65.4631 42.6809 65.6096 42.7493 65.7583 42.8178C66.0062 42.9342 66.2519 43.0529 66.4933 43.1715C66.6226 43.2354 66.7476 43.3016 66.8769 43.3655C67.0019 43.4294 67.1269 43.4956 67.2519 43.5617C67.6204 43.758 67.9825 43.9588 68.3338 44.1642C68.5687 44.2988 68.7971 44.438 69.0213 44.5795C69.1333 44.648 69.2454 44.721 69.3553 44.7917C69.4652 44.8625 69.573 44.9355 69.6808 45.0062C69.8963 45.15 70.1075 45.2961 70.3122 45.4444C70.4286 45.5288 70.5428 45.6132 70.6592 45.7C70.7454 45.7639 70.8316 45.8277 70.9135 45.8939C71.1786 46.097 71.4351 46.307 71.6808 46.5192C71.754 46.5762 71.8208 46.6401 71.892 46.7018C71.9372 46.7428 71.9825 46.7839 72.0277 46.8227C72.198 46.9733 72.3618 47.1285 72.5191 47.2837C72.5321 47.2996 72.545 47.3133 72.5601 47.3247C72.6247 47.3909 72.6894 47.4548 72.7519 47.5187C72.9674 47.7423 73.1765 47.966 73.3704 48.1919C73.4545 48.2832 73.5299 48.3745 73.6053 48.468C73.6937 48.573 73.7777 48.678 73.8575 48.7829C73.9308 48.8765 73.9997 48.9701 74.0708 49.0659C74.1161 49.1229 74.1571 49.1846 74.198 49.2416C74.3984 49.5291 74.5859 49.8167 74.754 50.1133C74.8014 50.1955 74.8467 50.2776 74.892 50.3621C74.9415 50.4511 74.989 50.5401 75.0321 50.6291C75.1226 50.8093 75.2066 50.9873 75.2842 51.1699C75.3618 51.3525 75.4329 51.5327 75.4997 51.7153C75.4997 51.7176 75.5019 51.7176 75.5019 51.7176C75.5644 51.9024 75.6226 52.085 75.6765 52.2698C75.7282 52.4546 75.7734 52.6418 75.8144 52.8289L75.8683 53.1096C75.8833 53.2031 75.8963 53.2967 75.9135 53.3925C75.9243 53.4861 75.9372 53.5797 75.948 53.6755H75.9523Z" fill="#7678ED"/>
<path d="M58.9916 37.1152C57.9356 36.798 56.8407 36.5082 55.7179 36.2549C51.8041 35.3672 47.5067 34.8766 42.9959 34.8766C38.4851 34.8766 34.1899 35.3672 30.2761 36.2549C29.1511 36.5105 28.0584 36.798 26.998 37.1175L29.9463 31.7092C32.8709 30.5682 37.5649 29.1602 43.4485 29.1967C48.7955 29.231 53.108 30.445 55.9269 31.4924L58.9937 37.1152H58.9916Z" fill="#F7B801"/>
<path d="M67.6766 60.6972V81.0229C67.6766 84.5235 64.6722 87.3874 61.002 87.3874H24.9847C21.3145 87.3874 18.3145 84.5235 18.3145 81.0229V60.6972C18.3145 56.528 20.3726 52.7993 23.5731 50.3804C24.7024 49.5315 25.9739 48.84 27.3468 48.3585C28.8295 47.8314 30.4373 47.5461 32.1076 47.5461H53.8856C61.4675 47.5461 67.6766 53.4633 67.6766 60.6972Z" fill="#FFC38D"/>
<path d="M56.5304 74.3528V74.5262C56.5304 74.6129 56.5304 74.6974 56.526 74.7818V74.7863C56.4334 77.4084 54.9528 79.6538 52.8364 80.7218C52.3019 78.5653 50.4463 76.9748 48.2437 76.9748C46.8881 76.9748 45.664 77.5772 44.7976 78.5425C44.0734 77.4814 43.6273 76.1921 43.5778 74.7955C43.5734 74.7065 43.5713 74.6152 43.5713 74.5262V74.3528C43.5713 73.9009 43.9204 73.5312 44.345 73.5312H55.7545C56.1791 73.5312 56.5282 73.9009 56.5282 74.3528H56.5304Z" fill="#1D1D1B"/>
<path d="M52.8386 80.7219C51.9959 81.1486 51.0498 81.386 50.052 81.386C47.8925 81.386 45.9765 80.2655 44.7998 78.5426C45.6662 77.5773 46.8882 76.9749 48.2459 76.9749C50.4507 76.9749 52.3041 78.5654 52.8386 80.7219Z" fill="#F35B04"/>
<path d="M27.3466 48.3586V87.3875H24.9867C21.3164 87.3875 18.3164 84.5236 18.3164 81.0231V60.6974C18.3164 56.5282 20.3746 52.7994 23.575 50.3805C24.7043 49.5316 25.9759 48.8401 27.3487 48.3586H27.3466Z" fill="white"/>
<path opacity="0.5" d="M67.6767 69.8139V79.4416C67.1896 79.6219 66.668 79.7177 66.1249 79.7177H62.8275C60.1853 79.7177 58.0215 77.4289 58.0215 74.6289C58.0215 74.5947 58.0215 74.5627 58.0215 74.5285C58.0452 73.1661 58.5818 71.9339 59.431 71.0348C60.3038 70.1128 61.5042 69.54 62.8254 69.54H66.1228C66.6659 69.54 67.1874 69.6359 67.6745 69.8162L67.6767 69.8139Z" fill="#F35B04"/>
<path opacity="0.5" d="M34.5433 69.437H29.5929C27.3945 69.437 25.6123 71.324 25.6123 73.6518V75.3998C25.6123 77.7276 27.3945 79.6147 29.5929 79.6147H34.5433C36.7418 79.6147 38.5239 77.7276 38.5239 75.3998V73.6518C38.5239 71.324 36.7418 69.437 34.5433 69.437Z" fill="#F35B04"/>
<path d="M57.8423 69.143C60.5204 69.143 62.6914 66.8442 62.6914 64.0085C62.6914 61.1728 60.5204 58.874 57.8423 58.874C55.1642 58.874 52.9932 61.1728 52.9932 64.0085C52.9932 66.8442 55.1642 69.143 57.8423 69.143Z" fill="#1D1D1B"/>
<path d="M59.2454 63.2668C59.9083 63.2668 60.4458 62.6977 60.4458 61.9957C60.4458 61.2937 59.9083 60.7246 59.2454 60.7246C58.5824 60.7246 58.0449 61.2937 58.0449 61.9957C58.0449 62.6977 58.5824 63.2668 59.2454 63.2668Z" fill="white"/>
<path d="M36.9155 69.143C39.5937 69.143 41.7647 66.8442 41.7647 64.0085C41.7647 61.1728 39.5937 58.874 36.9155 58.874C34.2374 58.874 32.0664 61.1728 32.0664 64.0085C32.0664 66.8442 34.2374 69.143 36.9155 69.143Z" fill="#1D1D1B"/>
<path d="M38.4114 63.2668C39.0743 63.2668 39.6118 62.6977 39.6118 61.9957C39.6118 61.2937 39.0743 60.7246 38.4114 60.7246C37.7484 60.7246 37.2109 61.2937 37.2109 61.9957C37.2109 62.6977 37.7484 63.2668 38.4114 63.2668Z" fill="white"/>
<path d="M40.2265 80.1102H57.4118C58.1877 80.1102 58.8191 80.7788 58.8191 81.6003V85.021C58.8191 93.2887 52.4808 100 44.6726 100H40.2286C39.4528 100 38.8213 99.3314 38.8213 98.5099V81.5981C38.8213 80.7765 39.4528 80.1079 40.2286 80.1079L40.2265 80.1102Z" fill="white"/>
<path d="M54.6833 83.668C54.3858 85.1672 53.5863 88.1178 51.2027 90.9566C48.0604 94.6991 44.1251 95.9131 42.666 96.2874" stroke="#E7E5E7" stroke-width="8" stroke-linecap="round" stroke-linejoin="round"/>
<path d="M51.0582 67.6594H62.1358C63.6186 67.6594 64.8212 68.9328 64.8212 70.5028V71.6849C64.8212 73.2549 63.6186 74.5282 62.1358 74.5282H54.416C52.0065 74.5282 50.0518 72.4585 50.0518 69.9072V68.7251C50.0518 68.1364 50.5022 67.6594 51.0582 67.6594Z" fill="white"/>
<path d="M43.1807 74.5261H32.1872C30.7044 74.5261 29.5018 73.2528 29.5018 71.6828V70.5007C29.5018 68.9307 30.7044 67.6573 32.1872 67.6573H46.5385C47.0945 67.6573 47.5449 68.1343 47.5449 68.723V69.9051C47.5449 72.4564 45.5902 74.5261 43.1807 74.5261Z" fill="white"/>
<path d="M62.0494 53.1599H54.0408C52.5577 53.1599 51.3555 54.4329 51.3555 56.0033V57.1854C51.3555 58.7557 52.5577 60.0287 54.0408 60.0287H62.0494C63.5325 60.0287 64.7348 58.7557 64.7348 57.1854V56.0033C64.7348 54.4329 63.5325 53.1599 62.0494 53.1599Z" fill="white" stroke="#E7E5E7" stroke-width="3" stroke-linecap="round" stroke-linejoin="round"/>
<path d="M42.4762 53.1599H24.8943C23.4113 53.1599 22.209 54.4329 22.209 56.0032V57.1853C22.209 58.7556 23.4113 60.0286 24.8943 60.0286H42.4762C43.9593 60.0286 45.1616 58.7556 45.1616 57.1853V56.0032C45.1616 54.4329 43.9593 53.1599 42.4762 53.1599Z" fill="white" stroke="#E7E5E7" stroke-width="3" stroke-linecap="round" stroke-linejoin="round"/>
</g>
<defs>
<filter id="filter0_d_465_2630" x="0" y="0" width="86" height="110.288" filterUnits="userSpaceOnUse" color-interpolation-filters="sRGB">
<feFlood flood-opacity="0" result="BackgroundImageFix"/>
<feColorMatrix in="SourceAlpha" type="matrix" values="0 0 0 0 0 0 0 0 0 0 0 0 0 0 0 0 0 0 127 0" result="hardAlpha"/>
<feOffset/>
<feGaussianBlur stdDeviation="5"/>
<feComposite in2="hardAlpha" operator="out"/>
<feColorMatrix type="matrix" values="0 0 0 0 0.968627 0 0 0 0 0.721569 0 0 0 0 0.00392157 0 0 0 1 0"/>
<feBlend mode="normal" in2="BackgroundImageFix" result="effect1_dropShadow_465_2630"/>
<feBlend mode="normal" in="SourceGraphic" in2="effect1_dropShadow_465_2630" result="shape"/>
</filter>
</defs>
</svg>
